<svg width="44" height="44" viewBox="0 0 44 44" fill="none" xmlns="http://www.w3.org/2000/svg">
<g clip-path="url(#clip0_106_1175)">
<circle cx="22" cy="22" r="22" fill="#FCECEC"/>
<path d="M27.8877 20.8967C29.2827 20.7007 30.3567 19.5047 30.3597 18.0557C30.3597 16.6277 29.3187 15.4437 27.9537 15.2197" stroke="#E54545" stroke-width="2" stroke-linecap="round" stroke-linejoin="round"/>
<path d="M29.7285 24.2502C31.0795 24.4522 32.0225 24.9252 32.0225 25.9002C32.0225 26.5712 31.5785 27.0072 30.8605 27.2812" stroke="#E54545" stroke-width="2" stroke-linecap="round" stroke-linejoin="round"/>
<path fill-rule="evenodd" clip-rule="evenodd" d="M21.8867 24.6638C18.6727 24.6638 15.9277 25.1508 15.9277 27.0958C15.9277 29.0398 18.6557 29.5408 21.8867 29.5408C25.1007 29.5408 27.8447 29.0588 27.8447 27.1128C27.8447 25.1668 25.1177 24.6638 21.8867 24.6638Z" stroke="#E54545" stroke-width="2" stroke-linecap="round" stroke-linejoin="round"/>
<path fill-rule="evenodd" clip-rule="evenodd" d="M21.8867 21.8879C23.9957 21.8879 25.7057 20.1789 25.7057 18.0689C25.7057 15.9599 23.9957 14.2499 21.8867 14.2499C19.7777 14.2499 18.0677 15.9599 18.0677 18.0689C18.0597 20.1709 19.7567 21.8809 21.8587 21.8879H21.8867Z" stroke="#E54545" stroke-width="2" stroke-linecap="round" stroke-linejoin="round"/>
<path d="M15.8848 20.8967C14.4888 20.7007 13.4158 19.5047 13.4128 18.0557C13.4128 16.6277 14.4538 15.4437 15.8188 15.2197" stroke="#E54545" stroke-width="2" stroke-linecap="round" stroke-linejoin="round"/>
<path d="M14.0439 24.2502C12.6929 24.4522 11.7499 24.9252 11.7499 25.9002C11.7499 26.5712 12.1939 27.0072 12.9119 27.2812" stroke="#E54545" stroke-width="2" stroke-linecap="round" stroke-linejoin="round"/>
</g>
<defs>
<clipPath id="clip0_106_1175">
<rect width="44" height="44" fill="white"/>
</clipPath>
</defs>
</svg>
