<svg width="44" height="44" viewBox="0 0 44 44" fill="none" xmlns="http://www.w3.org/2000/svg">
<g clip-path="url(#clip0_106_1154)">
<circle cx="22" cy="22" r="22" fill="#F1EBFF"/>
<path d="M17.2449 24.7815L20.238 20.8914L23.6522 23.5733L26.5812 19.793" stroke="#7534FF" stroke-width="2" stroke-linecap="round" stroke-linejoin="round"/>
<path d="M29.9954 16.1225C31.057 16.1225 31.9176 15.2619 31.9176 14.2003C31.9176 13.1387 31.057 12.2781 29.9954 12.2781C28.9338 12.2781 28.0732 13.1387 28.0732 14.2003C28.0732 15.2619 28.9338 16.1225 29.9954 16.1225Z" stroke="#7534FF" stroke-width="2" stroke-linecap="round" stroke-linejoin="round"/>
<path d="M24.9245 13.1202H17.6567C14.6453 13.1202 12.778 15.253 12.778 18.2644V26.3468C12.778 29.3582 14.6087 31.4818 17.6567 31.4818H26.2609C29.2723 31.4818 31.1396 29.3582 31.1396 26.3468V19.3079" stroke="#7534FF" stroke-width="2" stroke-linecap="round" stroke-linejoin="round"/>
</g>
<defs>
<clipPath id="clip0_106_1154">
<rect width="44" height="44" fill="white"/>
</clipPath>
</defs>
</svg>
