<svg width="20" height="20" viewBox="0 0 20 20" fill="none" xmlns="http://www.w3.org/2000/svg">
<path d="M5.72241 12.4196L8.21669 9.17778L11.0618 11.4127L13.5027 8.26245" stroke="#7534FF" stroke-width="1.66667" stroke-linecap="round" stroke-linejoin="round"/>
<path d="M16.3479 5.20366C17.2326 5.20366 17.9498 4.4865 17.9498 3.60183C17.9498 2.71716 17.2326 2 16.3479 2C15.4633 2 14.7461 2.71716 14.7461 3.60183C14.7461 4.4865 15.4633 5.20366 16.3479 5.20366Z" stroke="#7534FF" stroke-width="1.66667" stroke-linecap="round" stroke-linejoin="round"/>
<path d="M12.122 2.70178H6.0656C3.55606 2.70178 2 4.47905 2 6.98859V13.7239C2 16.2334 3.52555 18.0031 6.0656 18.0031H13.2357C15.7452 18.0031 17.3013 16.2334 17.3013 13.7239V7.85815" stroke="#7534FF" stroke-width="1.66667" stroke-linecap="round" stroke-linejoin="round"/>
</svg>
