<svg width="61" height="60" viewBox="0 0 61 60" fill="none" xmlns="http://www.w3.org/2000/svg">
<circle cx="30.8333" cy="30" r="30" fill="#F0F5FF"/>
<g clip-path="url(#clip0_106_995)">
<path d="M30.3333 12C26.7733 12 23.2931 13.0557 20.3331 15.0335C17.373 17.0114 15.0659 19.8226 13.7035 23.1117C12.3411 26.4008 11.9847 30.02 12.6792 33.5116C13.3737 37.0033 15.0881 40.2106 17.6054 42.7279C20.1227 45.2453 23.33 46.9596 26.8217 47.6541C30.3134 48.3487 33.9326 47.9922 37.2216 46.6298C40.5107 45.2675 43.3219 42.9604 45.2998 40.0003C47.2776 37.0402 48.3333 33.5601 48.3333 30C48.3282 25.2277 46.4301 20.6523 43.0555 17.2778C39.681 13.9032 35.1056 12.0052 30.3333 12V12ZM43.3038 22.5H38.4723C37.3908 19.9935 35.9667 17.6491 34.2408 15.534C38.0605 16.5734 41.3168 19.0762 43.3038 22.5ZM37.0833 30C37.071 31.5272 36.8303 33.044 36.3693 34.5H24.2973C23.8363 33.044 23.5956 31.5272 23.5833 30C23.5956 28.4728 23.8363 26.956 24.2973 25.5H36.3693C36.8303 26.956 37.071 28.4728 37.0833 30ZM25.5003 37.5H35.1663C33.8932 40.0136 32.2656 42.3313 30.3333 44.382C28.4004 42.3318 26.7727 40.0141 25.5003 37.5ZM25.5003 22.5C26.7735 19.9864 28.4011 17.6687 30.3333 15.618C32.2663 17.6682 33.894 19.9859 35.1663 22.5H25.5003ZM26.4333 15.534C24.7048 17.6487 23.2782 19.993 22.1943 22.5H17.3628C19.3516 19.0746 22.6108 16.5716 26.4333 15.534ZM16.0248 25.5H21.1833C20.7945 26.9687 20.5929 28.4807 20.5833 30C20.5929 31.5193 20.7945 33.0313 21.1833 34.5H16.0248C15.1028 31.5708 15.1028 28.4292 16.0248 25.5ZM17.3628 37.5H22.1943C23.2782 40.007 24.7048 42.3513 26.4333 44.466C22.6108 43.4284 19.3516 40.9254 17.3628 37.5ZM34.2408 44.466C35.9667 42.3509 37.3908 40.0065 38.4723 37.5H43.3038C41.3168 40.9238 38.0605 43.4266 34.2408 44.466ZM44.6418 34.5H39.4833C39.8722 33.0313 40.0738 31.5193 40.0833 30C40.0738 28.4807 39.8722 26.9687 39.4833 25.5H44.6388C45.5608 28.4292 45.5608 31.5708 44.6388 34.5H44.6418Z" fill="#0B63E5"/>
</g>
<defs>
<clipPath id="clip0_106_995">
<rect width="36" height="36" fill="white" transform="translate(12.3333 12)"/>
</clipPath>
</defs>
</svg>
