<svg width="27" height="220" viewBox="0 0 27 220" fill="none" xmlns="http://www.w3.org/2000/svg">
<path d="M4.26087 1C2.44928 1 1 2.46274 1 4.29116C1 6.11958 2.44928 7.58232 4.26087 7.58232C6.07246 7.58232 7.52174 6.11958 7.52174 4.29116C7.52174 2.46274 6.07246 1 4.26087 1Z" fill="white"/>
<path d="M3.55376 211.293C3.16324 211.683 3.16324 212.317 3.55376 212.707L9.91772 219.071C10.3082 219.462 10.9414 219.462 11.3319 219.071C11.7225 218.681 11.7225 218.047 11.3319 217.657L5.67508 212L11.3319 206.343C11.7225 205.953 11.7225 205.319 11.3319 204.929C10.9414 204.538 10.3082 204.538 9.91772 204.929L3.55376 211.293ZM2 4.29116C2 3.00629 3.01026 2 4.26087 2V0C1.88829 0 0 1.91919 0 4.29116H2ZM4.26087 2C5.51148 2 6.52174 3.00629 6.52174 4.29116H8.52174C8.52174 1.91919 6.63345 0 4.26087 0V2ZM6.52174 4.29116C6.52174 5.57604 5.51148 6.58232 4.26087 6.58232V8.58232C6.63345 8.58232 8.52174 6.66313 8.52174 4.29116H6.52174ZM4.26087 6.58232C3.01026 6.58232 2 5.57604 2 4.29116H0C0 6.66313 1.88829 8.58232 4.26087 8.58232V6.58232ZM25 22.7694V192H27V22.7694H25ZM6 211H4.26087V213H6V211ZM25 192C25 202.493 16.4934 211 6 211V213C17.598 213 27 203.598 27 192H25ZM7.52174 5.29116C17.1747 5.29116 25 13.1164 25 22.7694H27C27 12.0119 18.2793 3.29116 7.52174 3.29116V5.29116Z" fill="#0B63E5"/>
</svg>
