<svg width="27" height="220" viewBox="0 0 27 220" fill="none" xmlns="http://www.w3.org/2000/svg">
<path d="M22.7391 1C24.5507 1 26 2.46274 26 4.29116C26 6.11958 24.5507 7.58232 22.7391 7.58232C20.9275 7.58232 19.4783 6.11958 19.4783 4.29116C19.4783 2.46274 20.9275 1 22.7391 1Z" fill="white"/>
<path d="M23.4462 211.293C23.8368 211.683 23.8368 212.317 23.4462 212.707L17.0823 219.071C16.6918 219.462 16.0586 219.462 15.6681 219.071C15.2775 218.681 15.2775 218.047 15.6681 217.657L21.3249 212L15.6681 206.343C15.2775 205.953 15.2775 205.319 15.6681 204.929C16.0586 204.538 16.6918 204.538 17.0823 204.929L23.4462 211.293ZM25 4.29116C25 3.00629 23.9897 2 22.7391 2V0C25.1117 0 27 1.91919 27 4.29116H25ZM22.7391 2C21.4885 2 20.4783 3.00629 20.4783 4.29116H18.4783C18.4783 1.91919 20.3666 0 22.7391 0V2ZM20.4783 4.29116C20.4783 5.57604 21.4885 6.58232 22.7391 6.58232V8.58232C20.3666 8.58232 18.4783 6.66313 18.4783 4.29116H20.4783ZM22.7391 6.58232C23.9897 6.58232 25 5.57604 25 4.29116H27C27 6.66313 25.1117 8.58232 22.7391 8.58232V6.58232ZM2 22.7694V192H0V22.7694H2ZM21 211H22.7391V213H21V211ZM2 192C2 202.493 10.5066 211 21 211V213C9.40202 213 0 203.598 0 192H2ZM19.4783 5.29116C9.82528 5.29116 2 13.1164 2 22.7694H0C0 12.0119 8.72071 3.29116 19.4783 3.29116V5.29116Z" fill="#0B63E5"/>
</svg>
