<svg width="73" height="16" viewBox="0 0 73 16" fill="none" xmlns="http://www.w3.org/2000/svg">
<path d="M3.74717 5.5C5.08817 5.5 6.16096 6.61111 6.16096 8C6.16096 9.38889 5.08817 10.5 3.74717 10.5C2.40617 10.5 1.33337 9.38889 1.33337 8C1.33337 6.61111 2.40617 5.5 3.74717 5.5Z" fill="white"/>
<path d="M72.0405 7.29289C72.431 7.68342 72.431 8.31658 72.0405 8.70711L65.6765 15.0711C65.286 15.4616 64.6528 15.4616 64.2623 15.0711C63.8718 14.6805 63.8718 14.0474 64.2623 13.6569L69.9192 8L64.2623 2.34315C63.8718 1.95262 63.8718 1.31946 64.2623 0.928932C64.6528 0.538408 65.286 0.538408 65.6765 0.928932L72.0405 7.29289ZM5.16096 8C5.16096 7.13003 4.50309 6.5 3.74717 6.5V4.5C5.67324 4.5 7.16096 6.0922 7.16096 8H5.16096ZM3.74717 6.5C2.99124 6.5 2.33337 7.13003 2.33337 8H0.333374C0.333374 6.09219 1.82111 4.5 3.74717 4.5V6.5ZM2.33337 8C2.33337 8.86997 2.99124 9.5 3.74717 9.5V11.5C1.82111 11.5 0.333374 9.90781 0.333374 8H2.33337ZM3.74717 9.5C4.50309 9.5 5.16096 8.86997 5.16096 8H7.16096C7.16096 9.9078 5.67324 11.5 3.74717 11.5V9.5ZM6.16096 7H71.3334V9H6.16096V7Z" fill="#0B63E5"/>
</svg>
