<svg width="73" height="16" viewBox="0 0 73 16" fill="none" xmlns="http://www.w3.org/2000/svg">
<path d="M69.2528 5.5C67.9118 5.5 66.839 6.61111 66.839 8C66.839 9.38889 67.9118 10.5 69.2528 10.5C70.5938 10.5 71.6666 9.38889 71.6666 8C71.6666 6.61111 70.5938 5.5 69.2528 5.5Z" fill="white"/>
<path d="M0.959519 7.29289C0.568995 7.68342 0.568995 8.31658 0.959519 8.70711L7.32348 15.0711C7.714 15.4616 8.34717 15.4616 8.73769 15.0711C9.12822 14.6805 9.12822 14.0474 8.73769 13.6569L3.08084 8L8.73769 2.34315C9.12822 1.95262 9.12822 1.31946 8.73769 0.928932C8.34717 0.538408 7.714 0.538408 7.32348 0.928932L0.959519 7.29289ZM67.839 8C67.839 7.13003 68.4969 6.5 69.2528 6.5V4.5C67.3268 4.5 65.839 6.0922 65.839 8H67.839ZM69.2528 6.5C70.0088 6.5 70.6666 7.13003 70.6666 8H72.6666C72.6666 6.09219 71.1789 4.5 69.2528 4.5V6.5ZM70.6666 8C70.6666 8.86997 70.0088 9.5 69.2528 9.5V11.5C71.1789 11.5 72.6666 9.90781 72.6666 8H70.6666ZM69.2528 9.5C68.4969 9.5 67.839 8.86997 67.839 8H65.839C65.839 9.9078 67.3268 11.5 69.2528 11.5V9.5ZM66.839 7H1.66663V9H66.839V7Z" fill="#0B63E5"/>
</svg>
