<svg width="44" height="44" viewBox="0 0 44 44" fill="none" xmlns="http://www.w3.org/2000/svg">
<g clip-path="url(#clip0_106_1134)">
<circle cx="22" cy="22" r="22" fill="#F0F5FF"/>
<g clip-path="url(#clip1_106_1134)">
<path d="M32.773 17.7214C32.3041 17.181 31.7245 16.7477 31.0736 16.4507C30.4226 16.1538 29.7155 16.0002 29 16.0004H25.011L25.347 13.9594C25.4659 13.2406 25.3225 12.5031 24.9429 11.8813C24.5633 11.2595 23.9728 10.7949 23.2792 10.5722C22.5856 10.3494 21.835 10.3835 21.1644 10.6681C20.4938 10.9526 19.9478 11.4688 19.626 12.1224L17.712 16.0004H15C13.6744 16.002 12.4036 16.5293 11.4662 17.4666C10.5289 18.4039 10.0016 19.6748 10 21.0004L10 26.0004C10.0016 27.326 10.5289 28.5968 11.4662 29.5342C12.4036 30.4715 13.6744 30.9988 15 31.0004H28.3C29.5035 30.9955 30.6652 30.5587 31.5738 29.7695C32.4824 28.9804 33.0776 27.8913 33.251 26.7004L33.956 21.7004C34.0553 20.9911 34.001 20.2688 33.7969 19.5823C33.5928 18.8958 33.2437 18.2612 32.773 17.7214ZM12 26.0004V21.0004C12 20.2047 12.3161 19.4417 12.8787 18.8791C13.4413 18.3164 14.2044 18.0004 15 18.0004H17V29.0004H15C14.2044 29.0004 13.4413 28.6843 12.8787 28.1217C12.3161 27.5591 12 26.796 12 26.0004ZM31.971 21.4194L31.265 26.4194C31.1618 27.1334 30.8057 27.7866 30.2616 28.2603C29.7175 28.7339 29.0214 28.9965 28.3 29.0004H19V17.7344C19.0942 17.6523 19.1723 17.5532 19.23 17.4424L21.419 13.0074C21.5011 12.8593 21.6171 12.7328 21.7576 12.6383C21.8981 12.5438 22.059 12.484 22.2271 12.4638C22.3952 12.4436 22.5657 12.4636 22.7246 12.5221C22.8834 12.5806 23.0262 12.676 23.141 12.8004C23.2392 12.9146 23.3111 13.0491 23.3513 13.1943C23.3916 13.3395 23.3994 13.4918 23.374 13.6404L22.846 16.8404C22.8228 16.9834 22.831 17.1297 22.8699 17.2692C22.9089 17.4087 22.9776 17.5381 23.0715 17.6484C23.1654 17.7587 23.2821 17.8473 23.4136 17.9081C23.545 17.9689 23.6882 18.0004 23.833 18.0004H29C29.4294 18.0003 29.8538 18.0924 30.2445 18.2705C30.6353 18.4486 30.9832 18.7085 31.2649 19.0326C31.5465 19.3567 31.7553 19.7375 31.8772 20.1493C31.999 20.5611 32.031 20.9942 31.971 21.4194Z" fill="#0B63E5"/>
</g>
</g>
<defs>
<clipPath id="clip0_106_1134">
<rect width="44" height="44" fill="white"/>
</clipPath>
<clipPath id="clip1_106_1134">
<rect width="24" height="24" fill="white" transform="translate(10 10)"/>
</clipPath>
</defs>
</svg>
