<svg width="44" height="44" viewBox="0 0 44 44" fill="none" xmlns="http://www.w3.org/2000/svg">
<g clip-path="url(#clip0_106_1167)">
<circle cx="22" cy="22" r="22" fill="#E7F5E8"/>
<g clip-path="url(#clip1_106_1167)">
<path d="M28.9999 18.424V17C28.9999 15.1435 28.2624 13.363 26.9497 12.0503C25.6369 10.7375 23.8564 10 21.9999 10C20.1434 10 18.3629 10.7375 17.0502 12.0503C15.7374 13.363 14.9999 15.1435 14.9999 17V18.424C14.1093 18.8127 13.3512 19.4525 12.8184 20.2652C12.2856 21.0779 12.0012 22.0282 11.9999 23V29C12.0015 30.3256 12.5288 31.5964 13.4661 32.5338C14.4035 33.4711 15.6743 33.9984 16.9999 34H26.9999C28.3255 33.9984 29.5964 33.4711 30.5337 32.5338C31.471 31.5964 31.9983 30.3256 31.9999 29V23C31.9986 22.0282 31.7142 21.0779 31.1814 20.2652C30.6486 19.4525 29.8905 18.8127 28.9999 18.424ZM16.9999 17C16.9999 15.6739 17.5267 14.4021 18.4644 13.4645C19.4021 12.5268 20.6738 12 21.9999 12C23.326 12 24.5978 12.5268 25.5354 13.4645C26.4731 14.4021 26.9999 15.6739 26.9999 17V18H16.9999V17ZM29.9999 29C29.9999 29.7956 29.6838 30.5587 29.1212 31.1213C28.5586 31.6839 27.7956 32 26.9999 32H16.9999C16.2043 32 15.4412 31.6839 14.8786 31.1213C14.316 30.5587 13.9999 29.7956 13.9999 29V23C13.9999 22.2044 14.316 21.4413 14.8786 20.8787C15.4412 20.3161 16.2043 20 16.9999 20H26.9999C27.7956 20 28.5586 20.3161 29.1212 20.8787C29.6838 21.4413 29.9999 22.2044 29.9999 23V29Z" fill="#0F9918"/>
<path d="M21.9999 23.9996C21.7347 23.9996 21.4804 24.105 21.2928 24.2925C21.1053 24.4801 20.9999 24.7344 20.9999 24.9996V26.9996C20.9999 27.2648 21.1053 27.5192 21.2928 27.7067C21.4804 27.8943 21.7347 27.9996 21.9999 27.9996C22.2652 27.9996 22.5195 27.8943 22.7071 27.7067C22.8946 27.5192 23 27.2648 23 26.9996V24.9996C23 24.7344 22.8946 24.4801 22.7071 24.2925C22.5195 24.105 22.2652 23.9996 21.9999 23.9996Z" fill="#0F9918"/>
</g>
</g>
<defs>
<clipPath id="clip0_106_1167">
<rect width="44" height="44" fill="white"/>
</clipPath>
<clipPath id="clip1_106_1167">
<rect width="24" height="24" fill="white" transform="translate(10 10)"/>
</clipPath>
</defs>
</svg>
