<svg width="20" height="20" viewBox="0 0 20 20" fill="none" xmlns="http://www.w3.org/2000/svg">
<g clip-path="url(#clip0_163_2089)">
<path d="M18.9775 6.43444C18.5867 5.98411 18.1038 5.62301 17.5613 5.37557C17.0189 5.12813 16.4296 5.00015 15.8333 5.00027H12.5092L12.7892 3.29944C12.8882 2.70049 12.7687 2.08589 12.4524 1.56772C12.1361 1.04956 11.644 0.662368 11.066 0.476767C10.488 0.291166 9.8625 0.319525 9.30365 0.55667C8.7448 0.793815 8.28981 1.22395 8.02167 1.76861L6.42667 5.00027H4.16667C3.062 5.0016 2.00297 5.44101 1.22185 6.22212C0.440735 7.00324 0.00132321 8.06228 0 9.16694L0 13.3336C0.00132321 14.4383 0.440735 15.4973 1.22185 16.2784C2.00297 17.0595 3.062 17.499 4.16667 17.5003H15.25C16.2529 17.4962 17.221 17.1322 17.9782 16.4746C18.7354 15.8169 19.2313 14.9094 19.3758 13.9169L19.9633 9.75027C20.0461 9.15922 20.0009 8.55729 19.8308 7.98522C19.6607 7.41315 19.3697 6.88429 18.9775 6.43444ZM1.66667 13.3336V9.16694C1.66667 8.5039 1.93006 7.86801 2.3989 7.39917C2.86774 6.93033 3.50363 6.66694 4.16667 6.66694H5.83333V15.8336H4.16667C3.50363 15.8336 2.86774 15.5702 2.3989 15.1014C1.93006 14.6325 1.66667 13.9966 1.66667 13.3336ZM18.3092 9.51611L17.7208 13.6828C17.6348 14.2778 17.3381 14.8221 16.8847 15.2168C16.4312 15.6116 15.8512 15.8304 15.25 15.8336H7.5V6.44527C7.57854 6.37685 7.64355 6.29432 7.69167 6.20194L9.51583 2.50611C9.58424 2.38271 9.68096 2.27732 9.79803 2.19857C9.91509 2.11983 10.0492 2.06999 10.1893 2.05316C10.3293 2.03632 10.4714 2.05296 10.6038 2.10171C10.7362 2.15047 10.8551 2.22994 10.9508 2.33361C11.0327 2.42881 11.0926 2.54091 11.1261 2.66191C11.1597 2.78291 11.1661 2.90983 11.145 3.03361L10.705 5.70027C10.6857 5.81942 10.6925 5.94135 10.7249 6.05761C10.7574 6.17387 10.8147 6.2817 10.8929 6.37363C10.9711 6.46556 11.0684 6.5394 11.178 6.59005C11.2875 6.64069 11.4068 6.66693 11.5275 6.66694H15.8333C16.1912 6.66689 16.5448 6.74366 16.8705 6.89206C17.1961 7.04046 17.486 7.25703 17.7207 7.52714C17.9555 7.79724 18.1294 8.11458 18.231 8.45772C18.3325 8.80085 18.3591 9.16178 18.3092 9.51611Z" fill="#0B63E5"/>
</g>
<defs>
<clipPath id="clip0_163_2089">
<rect width="20" height="20" fill="white"/>
</clipPath>
</defs>
</svg>
