<svg width="21" height="20" viewBox="0 0 21 20" fill="none" xmlns="http://www.w3.org/2000/svg">
<g clip-path="url(#clip0_165_568)">
<path d="M20.9126 5.88005C20.8657 4.81738 20.6939 4.0868 20.4477 3.45374C20.1937 2.78176 19.803 2.18014 19.2911 1.68002C18.791 1.1721 18.1854 0.777435 17.5212 0.527447C16.8845 0.281274 16.1578 0.109427 15.0951 0.0625732C14.0245 0.0117516 13.6846 0 10.9692 0C8.25385 0 7.91397 0.0117516 6.84733 0.0586052C5.78466 0.105459 5.05408 0.277459 4.42117 0.523479C3.74904 0.777435 3.14743 1.16814 2.6473 1.68002C2.13939 2.18014 1.74487 2.78573 1.49473 3.44992C1.24856 4.0868 1.07671 4.81341 1.02986 5.87609C0.979037 6.9467 0.967285 7.28658 0.967285 10.002C0.967285 12.7173 0.979037 13.0572 1.02589 14.1239C1.07274 15.1865 1.24474 15.9171 1.49092 16.5502C1.74487 17.2221 2.13939 17.8238 2.6473 18.3239C3.14743 18.8318 3.75301 19.2265 4.4172 19.4765C5.05408 19.7226 5.78069 19.8945 6.84352 19.9413C7.91001 19.9883 8.25004 19.9999 10.9654 19.9999C13.6808 19.9999 14.0207 19.9883 15.0873 19.9413C16.15 19.8945 16.8806 19.7226 17.5135 19.4765C18.8576 18.9568 19.9202 17.8941 20.4399 16.5502C20.6859 15.9133 20.8579 15.1865 20.9048 14.1239C20.9516 13.0572 20.9634 12.7173 20.9634 10.002C20.9634 7.28658 20.9594 6.9467 20.9126 5.88005ZM19.1115 14.0457C19.0685 15.0225 18.9044 15.5499 18.7677 15.9015C18.4316 16.7728 17.7401 17.4643 16.8688 17.8004C16.5172 17.9372 15.9859 18.1012 15.013 18.1441C13.9581 18.1911 13.6417 18.2027 10.9732 18.2027C8.30468 18.2027 7.98433 18.1911 6.93325 18.1441C5.9565 18.1012 5.42906 17.9372 5.07743 17.8004C4.64384 17.6402 4.24917 17.3862 3.92883 17.0541C3.59673 16.7298 3.34278 16.3391 3.18253 15.9055C3.04578 15.5539 2.88172 15.0225 2.83883 14.0497C2.79183 12.9948 2.78023 12.6783 2.78023 10.0097C2.78023 7.34122 2.79183 7.02087 2.83883 5.96995C2.88172 4.99319 3.04578 4.46575 3.18253 4.11412C3.34278 3.68038 3.59673 3.28586 3.9328 2.96536C4.25695 2.63327 4.64766 2.37931 5.08139 2.21921C5.43302 2.08247 5.96444 1.9184 6.93722 1.87537C7.99212 1.82851 8.30864 1.81676 10.977 1.81676C13.6495 1.81676 13.9659 1.82851 15.0169 1.87537C15.9937 1.9184 16.5211 2.08247 16.8728 2.21921C17.3064 2.37931 17.701 2.63327 18.0214 2.96536C18.3535 3.28967 18.6074 3.68038 18.7677 4.11412C18.9044 4.46575 19.0685 4.99701 19.1115 5.96995C19.1584 7.02484 19.1701 7.34122 19.1701 10.0097C19.1701 12.6783 19.1584 12.9908 19.1115 14.0457Z" fill="#0B63E5"/>
<path d="M10.9693 4.86426C8.13287 4.86426 5.83154 7.16543 5.83154 10.002C5.83154 12.8385 8.13287 15.1397 10.9693 15.1397C13.8058 15.1397 16.107 12.8385 16.107 10.002C16.107 7.16543 13.8058 4.86426 10.9693 4.86426ZM10.9693 13.3347C9.12915 13.3347 7.63655 11.8422 7.63655 10.002C7.63655 8.16172 9.12915 6.66927 10.9693 6.66927C12.8095 6.66927 14.302 8.16172 14.302 10.002C14.302 11.8422 12.8095 13.3347 10.9693 13.3347Z" fill="#0B63E5"/>
<path d="M17.5099 4.66134C17.5099 5.3237 16.9728 5.86077 16.3103 5.86077C15.6479 5.86077 15.1108 5.3237 15.1108 4.66134C15.1108 3.99882 15.6479 3.46191 16.3103 3.46191C16.9728 3.46191 17.5099 3.99882 17.5099 4.66134Z" fill="#0B63E5"/>
</g>
<defs>
<clipPath id="clip0_165_568">
<rect width="20" height="20" fill="white" transform="translate(0.932129)"/>
</clipPath>
</defs>
</svg>
