<svg width="21" height="21" viewBox="0 0 21 21" fill="none" xmlns="http://www.w3.org/2000/svg">
<path d="M20.4467 6.18523C20.3999 5.12255 20.228 4.39197 19.9819 3.75891C19.7279 3.08694 19.3372 2.48532 18.8253 1.98519C18.3252 1.47728 17.7196 1.08261 17.0554 0.832623C16.4187 0.58645 15.6919 0.414603 14.6293 0.367749C13.5587 0.316927 13.2188 0.305176 10.5034 0.305176C7.78803 0.305176 7.44815 0.316927 6.38151 0.363781C5.31884 0.410635 4.58826 0.582635 3.95535 0.828655C3.28322 1.08261 2.68161 1.47331 2.18148 1.98519C1.67357 2.48532 1.27905 3.09091 1.02891 3.7551C0.782739 4.39197 0.610892 5.11859 0.564038 6.18126C0.513216 7.25188 0.501465 7.59175 0.501465 10.3071C0.501465 13.0225 0.513216 13.3624 0.56007 14.429C0.606924 15.4917 0.778923 16.2223 1.0251 16.8553C1.27905 17.5273 1.67357 18.1289 2.18148 18.6291C2.68161 19.137 3.28719 19.5316 3.95138 19.7816C4.58826 20.0278 5.31487 20.1997 6.3777 20.2465C7.44419 20.2935 7.78422 20.3051 10.4996 20.3051C13.215 20.3051 13.5548 20.2935 14.6215 20.2465C15.6842 20.1997 16.4147 20.0278 17.0476 19.7816C18.3917 19.262 19.4544 18.1993 19.9741 16.8553C20.2201 16.2185 20.3921 15.4917 20.439 14.429C20.4858 13.3624 20.4976 13.0225 20.4976 10.3071C20.4976 7.59175 20.4936 7.25188 20.4467 6.18523ZM18.6457 14.3509C18.6027 15.3276 18.4386 15.8551 18.3019 16.2067C17.9658 17.078 17.2743 17.7695 16.403 18.1056C16.0514 18.2423 15.5201 18.4064 14.5472 18.4493C13.4923 18.4963 13.1759 18.5079 10.5074 18.5079C7.83886 18.5079 7.51851 18.4963 6.46743 18.4493C5.49068 18.4064 4.96324 18.2423 4.61161 18.1056C4.17802 17.9453 3.78335 17.6914 3.46301 17.3593C3.13091 17.035 2.87696 16.6443 2.71671 16.2107C2.57996 15.8591 2.4159 15.3276 2.37301 14.3549C2.32601 13.3 2.31441 12.9834 2.31441 10.3149C2.31441 7.64639 2.32601 7.32605 2.37301 6.27512C2.4159 5.29837 2.57996 4.77092 2.71671 4.41929C2.87696 3.98555 3.13091 3.59103 3.46697 3.27054C3.79113 2.93844 4.18184 2.68449 4.61557 2.52439C4.9672 2.38764 5.49862 2.22358 6.4714 2.18054C7.52629 2.13369 7.84282 2.12194 10.5112 2.12194C13.1837 2.12194 13.5 2.13369 14.5511 2.18054C15.5279 2.22358 16.0553 2.38764 16.407 2.52439C16.8405 2.68449 17.2352 2.93844 17.5556 3.27054C17.8876 3.59485 18.1416 3.98555 18.3019 4.41929C18.4386 4.77092 18.6027 5.30218 18.6457 6.27512C18.6926 7.33002 18.7043 7.64639 18.7043 10.3149C18.7043 12.9834 18.6926 13.296 18.6457 14.3509Z" fill="white"/>
<path d="M10.5034 5.16943C7.66704 5.16943 5.36572 7.4706 5.36572 10.3072C5.36572 13.1437 7.66704 15.4449 10.5034 15.4449C13.34 15.4449 15.6412 13.1437 15.6412 10.3072C15.6412 7.4706 13.34 5.16943 10.5034 5.16943ZM10.5034 13.6399C8.66333 13.6399 7.17073 12.1474 7.17073 10.3072C7.17073 8.46689 8.66333 6.97444 10.5034 6.97444C12.3437 6.97444 13.8362 8.46689 13.8362 10.3072C13.8362 12.1474 12.3437 13.6399 10.5034 13.6399Z" fill="white"/>
<path d="M17.044 4.96603C17.044 5.62839 16.507 6.16545 15.8444 6.16545C15.1821 6.16545 14.645 5.62839 14.645 4.96603C14.645 4.30351 15.1821 3.7666 15.8444 3.7666C16.507 3.7666 17.044 4.30351 17.044 4.96603Z" fill="white"/>
</svg>
