<svg width="32" height="32" viewBox="0 0 32 32" fill="none" xmlns="http://www.w3.org/2000/svg">
<g clip-path="url(#clip0_165_307)">
<circle cx="16" cy="16" r="16" fill="#C7EFCA"/>
<g clip-path="url(#clip1_165_307)">
<path d="M24.9775 12.4343C24.5867 11.984 24.1038 11.6229 23.5613 11.3754C23.0189 11.128 22.4296 11 21.8333 11.0002H18.5092L18.7892 9.29932C18.8882 8.70037 18.7687 8.08576 18.4524 7.5676C18.1361 7.04944 17.644 6.66225 17.066 6.47664C16.488 6.29104 15.8625 6.3194 15.3036 6.55655C14.7448 6.79369 14.2898 7.22382 14.0217 7.76849L12.4267 11.0002H10.1667C9.062 11.0015 8.00297 11.4409 7.22185 12.222C6.44074 13.0031 6.00132 14.0622 6 15.1668L6 19.3335C6.00132 20.4381 6.44074 21.4972 7.22185 22.2783C8.00297 23.0594 9.062 23.4988 10.1667 23.5002H21.25C22.2529 23.496 23.221 23.1321 23.9782 22.4745C24.7354 21.8168 25.2313 20.9092 25.3758 19.9168L25.9633 15.7502C26.0461 15.1591 26.0009 14.5572 25.8308 13.9851C25.6607 13.413 25.3697 12.8842 24.9775 12.4343ZM7.66667 19.3335V15.1668C7.66667 14.5038 7.93006 13.8679 8.3989 13.3991C8.86774 12.9302 9.50363 12.6668 10.1667 12.6668H11.8333V21.8335H10.1667C9.50363 21.8335 8.86774 21.5701 8.3989 21.1013C7.93006 20.6324 7.66667 19.9965 7.66667 19.3335ZM24.3092 15.516L23.7208 19.6827C23.6348 20.2776 23.3381 20.822 22.8847 21.2167C22.4312 21.6114 21.8512 21.8303 21.25 21.8335H13.5V12.4452C13.5785 12.3767 13.6435 12.2942 13.6917 12.2018L15.5158 8.50599C15.5842 8.38259 15.681 8.27719 15.798 8.19845C15.9151 8.11971 16.0492 8.06987 16.1893 8.05303C16.3293 8.0362 16.4714 8.05284 16.6038 8.10159C16.7362 8.15035 16.8551 8.22982 16.9508 8.33348C17.0327 8.42869 17.0926 8.54079 17.1261 8.66179C17.1597 8.78279 17.1661 8.90971 17.145 9.03349L16.705 11.7002C16.6857 11.8193 16.6925 11.9412 16.7249 12.0575C16.7574 12.1738 16.8147 12.2816 16.8929 12.3735C16.9711 12.4654 17.0684 12.5393 17.178 12.5899C17.2875 12.6406 17.4068 12.6668 17.5275 12.6668H21.8333C22.1912 12.6668 22.5448 12.7435 22.8705 12.8919C23.1961 13.0403 23.486 13.2569 23.7207 13.527C23.9555 13.7971 24.1294 14.1145 24.231 14.4576C24.3325 14.8007 24.3591 15.1617 24.3092 15.516Z" fill="#0F9918"/>
</g>
</g>
<defs>
<clipPath id="clip0_165_307">
<rect width="32" height="32" fill="white"/>
</clipPath>
<clipPath id="clip1_165_307">
<rect width="20" height="20" fill="white" transform="translate(6 6)"/>
</clipPath>
</defs>
</svg>
