<svg width="45" height="44" viewBox="0 0 45 44" fill="none" xmlns="http://www.w3.org/2000/svg">
<g clip-path="url(#clip0_122_1335)">
<circle cx="22.3334" cy="22" r="22" fill="#C7EFCA"/>
<g clip-path="url(#clip1_122_1335)">
<path d="M33.1064 17.7214C32.6375 17.181 32.0579 16.7477 31.407 16.4507C30.756 16.1538 30.0488 16.0002 29.3334 16.0004H25.3444L25.6804 13.9594C25.7993 13.2406 25.6558 12.5031 25.2762 11.8813C24.8966 11.2595 24.3062 10.7949 23.6126 10.5722C22.9189 10.3494 22.1684 10.3835 21.4978 10.6681C20.8271 10.9526 20.2811 11.4688 19.9594 12.1224L18.0454 16.0004H15.3334C14.0078 16.002 12.7369 16.5293 11.7996 17.4666C10.8623 18.4039 10.335 19.6748 10.3334 21.0004L10.3334 26.0004C10.335 27.326 10.8623 28.5968 11.7996 29.5342C12.7369 30.4715 14.0078 30.9988 15.3334 31.0004H28.6334C29.8368 30.9955 30.9986 30.5587 31.9072 29.7695C32.8158 28.9804 33.411 27.8913 33.5844 26.7004L34.2894 21.7004C34.3887 20.9911 34.3344 20.2688 34.1303 19.5823C33.9262 18.8958 33.577 18.2612 33.1064 17.7214ZM12.3334 26.0004V21.0004C12.3334 20.2047 12.6494 19.4417 13.2121 18.8791C13.7747 18.3164 14.5377 18.0004 15.3334 18.0004H17.3334V29.0004H15.3334C14.5377 29.0004 13.7747 28.6843 13.2121 28.1217C12.6494 27.5591 12.3334 26.796 12.3334 26.0004ZM32.3044 21.4194L31.5984 26.4194C31.4952 27.1334 31.1391 27.7866 30.595 28.2603C30.0508 28.7339 29.3548 28.9965 28.6334 29.0004H19.3334V17.7344C19.4276 17.6523 19.5056 17.5532 19.5634 17.4424L21.7524 13.0074C21.8345 12.8593 21.9505 12.7328 22.091 12.6383C22.2315 12.5438 22.3924 12.484 22.5605 12.4638C22.7286 12.4436 22.8991 12.4636 23.0579 12.5221C23.2168 12.5806 23.3595 12.676 23.4744 12.8004C23.5726 12.9146 23.6444 13.0491 23.6847 13.1943C23.725 13.3395 23.7327 13.4918 23.7074 13.6404L23.1794 16.8404C23.1562 16.9834 23.1644 17.1297 23.2033 17.2692C23.2422 17.4087 23.311 17.5381 23.4049 17.6484C23.4987 17.7587 23.6155 17.8473 23.7469 17.9081C23.8784 17.9689 24.0215 18.0004 24.1664 18.0004H29.3334C29.7628 18.0003 30.1872 18.0924 30.5779 18.2705C30.9687 18.4486 31.3166 18.7085 31.5983 19.0326C31.8799 19.3567 32.0887 19.7375 32.2105 20.1493C32.3323 20.5611 32.3643 20.9942 32.3044 21.4194Z" fill="#0F9918"/>
</g>
</g>
<defs>
<clipPath id="clip0_122_1335">
<rect width="44" height="44" fill="white" transform="translate(0.333374)"/>
</clipPath>
<clipPath id="clip1_122_1335">
<rect width="24" height="24" fill="white" transform="translate(10.3334 10)"/>
</clipPath>
</defs>
</svg>
