<svg width="44" height="44" viewBox="0 0 44 44" fill="none" xmlns="http://www.w3.org/2000/svg">
<g clip-path="url(#clip0_122_1350)">
<circle cx="22" cy="22" r="22" fill="#E4D9FF"/>
<path d="M27.8877 20.8967C29.2827 20.7007 30.3567 19.5047 30.3597 18.0557C30.3597 16.6277 29.3187 15.4437 27.9537 15.2197" stroke="#7534FF" stroke-width="2" stroke-linecap="round" stroke-linejoin="round"/>
<path d="M29.7285 24.2505C31.0795 24.4525 32.0225 24.9255 32.0225 25.9005C32.0225 26.5715 31.5785 27.0075 30.8605 27.2815" stroke="#7534FF" stroke-width="2" stroke-linecap="round" stroke-linejoin="round"/>
<path fill-rule="evenodd" clip-rule="evenodd" d="M21.8867 24.6638C18.6727 24.6638 15.9277 25.1508 15.9277 27.0958C15.9277 29.0398 18.6557 29.5408 21.8867 29.5408C25.1007 29.5408 27.8447 29.0588 27.8447 27.1128C27.8447 25.1668 25.1177 24.6638 21.8867 24.6638Z" stroke="#7534FF" stroke-width="2" stroke-linecap="round" stroke-linejoin="round"/>
<path fill-rule="evenodd" clip-rule="evenodd" d="M21.8191 21.638C23.9281 21.638 25.6381 19.929 25.6381 17.819C25.6381 15.71 23.9281 14 21.8191 14C19.7101 14 18 15.71 18 17.819C17.9921 19.921 19.6891 21.631 21.7911 21.638H21.8191Z" stroke="#7534FF" stroke-width="2" stroke-linecap="round" stroke-linejoin="round"/>
<path d="M15.8848 20.8967C14.4888 20.7007 13.4158 19.5047 13.4128 18.0557C13.4128 16.6277 14.4538 15.4437 15.8188 15.2197" stroke="#7534FF" stroke-width="2" stroke-linecap="round" stroke-linejoin="round"/>
<path d="M14.0439 24.2505C12.6929 24.4525 11.7499 24.9255 11.7499 25.9005C11.7499 26.5715 12.1939 27.0075 12.9119 27.2815" stroke="#7534FF" stroke-width="2" stroke-linecap="round" stroke-linejoin="round"/>
</g>
<defs>
<clipPath id="clip0_122_1350">
<rect width="44" height="44" fill="white"/>
</clipPath>
</defs>
</svg>
