<svg width="62" height="60" viewBox="0 0 62 60" fill="none" xmlns="http://www.w3.org/2000/svg">
<circle cx="31.1666" cy="30" r="30" fill="#E7F5E8"/>
<g clip-path="url(#clip0_106_1000)">
<path d="M45.3768 19.8447L34.3158 14.5752C31.8811 13.1209 28.8506 13.0951 26.3913 14.5077L15.2059 19.8447C15.1639 19.8657 15.1204 19.8882 15.0799 19.9122C12.4255 21.43 11.5039 24.8122 13.0217 27.4667C13.5362 28.3665 14.293 29.1038 15.2059 29.5947L18.2914 31.0648V38.4147C18.2932 41.7014 20.4318 44.605 23.5699 45.5818C25.7537 46.2135 28.0182 46.5228 30.2914 46.4998C32.5644 46.5252 34.8288 46.2185 37.013 45.5893C40.1511 44.6126 42.2896 41.7089 42.2915 38.4223V31.0617L45.2915 29.6277V41.9997C45.2915 42.8281 45.963 43.4997 46.7915 43.4997C47.6199 43.4997 48.2914 42.8281 48.2914 41.9997V23.9997C48.3014 22.2383 46.9106 20.6111 45.3768 19.8447ZM39.2914 38.4223C39.2921 40.3881 38.0167 42.127 36.1414 42.7167C34.2397 43.2601 32.269 43.5239 30.2914 43.4997C28.3137 43.5239 26.343 43.2601 24.4414 42.7167C22.5661 42.127 21.2906 40.3881 21.2914 38.4223V32.4943L26.2669 34.8643C27.4945 35.5933 28.8966 35.9764 30.3244 35.9728C31.6834 35.9824 33.0196 35.6226 34.1899 34.9318L39.2914 32.4942V38.4223ZM44.0914 26.8872L32.7784 32.2872C31.201 33.2057 29.2458 33.1797 27.6934 32.2197L16.6249 26.9547C15.3911 26.2894 14.9303 24.7499 15.5956 23.5162C15.8206 23.099 16.1579 22.7531 16.5694 22.5177L27.8119 17.1477C29.3897 16.2313 31.3439 16.2572 32.8969 17.2152L43.9579 22.4847C44.7713 22.9364 45.2802 23.7894 45.2913 24.7198C45.2928 25.6011 44.839 26.4206 44.0914 26.8872Z" fill="#0F9918"/>
</g>
<defs>
<clipPath id="clip0_106_1000">
<rect width="36" height="36" fill="white" transform="translate(12.2916 12)"/>
</clipPath>
</defs>
</svg>
