<svg width="37" height="36" viewBox="0 0 37 36" fill="none" xmlns="http://www.w3.org/2000/svg">
<circle cx="18" cy="18" r="18" fill="#E7F5E8"/>
<path d="M26.3806 12.2863L20.2357 9.57145C18.8831 8.82216 17.1995 8.80886 15.8333 9.53667L9.61934 12.2863C9.59602 12.2972 9.57184 12.3088 9.54934 12.3211C8.07469 13.1031 7.56275 14.8456 8.40593 16.2132C8.69175 16.6768 9.11217 17.0567 9.61934 17.3096L11.3335 18.067V21.8538C11.3345 23.5471 12.5225 25.043 14.2659 25.5463C15.4791 25.8718 16.7371 26.0311 18 26.0192C19.2627 26.0324 20.5207 25.8743 21.7341 25.5502C23.4774 25.047 24.6655 23.5509 24.6665 21.8576V18.0654L26.3331 17.3266V23.7008C26.3331 24.1276 26.7062 24.4736 27.1664 24.4736C27.6267 24.4736 27.9997 24.1276 27.9997 23.7008V14.427C28.0053 13.5195 27.2326 12.6812 26.3806 12.2863ZM22.9998 21.8576C23.0002 22.8705 22.2917 23.7664 21.2499 24.0702C20.1934 24.3502 19.0986 24.486 17.9999 24.4736C16.9013 24.486 15.8065 24.3502 14.75 24.0702C13.7082 23.7663 12.9996 22.8705 13.0001 21.8576V18.8035L15.7642 20.0246C16.4462 20.4001 17.2251 20.5975 18.0183 20.5957C18.7733 20.6006 19.5156 20.4153 20.1657 20.0593L22.9998 18.8035V21.8576ZM25.6664 15.9147L19.3816 18.6968C18.5053 19.17 17.4191 19.1566 16.5567 18.662L10.4076 15.9495C9.72223 15.6067 9.46622 14.8135 9.83582 14.1779C9.96082 13.963 10.1482 13.7848 10.3768 13.6635L16.6225 10.8968C17.4991 10.4247 18.5847 10.438 19.4474 10.9316L25.5923 13.6465C26.0442 13.8792 26.3269 14.3187 26.3331 14.798C26.3339 15.2521 26.0818 15.6743 25.6664 15.9147Z" fill="#0F9918"/>
</svg>
