<svg width="45" height="44" viewBox="0 0 45 44" fill="none" xmlns="http://www.w3.org/2000/svg">
<g clip-path="url(#clip0_122_1339)">
<circle cx="22.6666" cy="22" r="22" fill="#FFD7D7"/>
<g clip-path="url(#clip1_122_1339)">
<path d="M34.6666 19C34.6689 18.4495 34.5197 17.909 34.2352 17.4376C33.9508 16.9662 33.5421 16.5823 33.054 16.3277C32.5659 16.0731 32.0172 15.9577 31.4678 15.9942C30.9185 16.0307 30.3898 16.2176 29.9397 16.5345C29.4895 16.8514 29.1353 17.2861 28.9157 17.7909C28.6961 18.2957 28.6196 18.8513 28.6947 19.3966C28.7697 19.942 28.9934 20.4562 29.3412 20.883C29.6891 21.3097 30.1476 21.6325 30.6666 21.816V26C30.6666 27.5913 30.0345 29.1174 28.9093 30.2426C27.7841 31.3679 26.2579 32 24.6666 32C23.0753 32 21.5492 31.3679 20.424 30.2426C19.2988 29.1174 18.6666 27.5913 18.6666 26V25.92C20.3307 25.6786 21.8524 24.8467 22.954 23.5762C24.0555 22.3058 24.6634 20.6815 24.6666 19V15C24.665 13.6744 24.1377 12.4036 23.2004 11.4662C22.2631 10.5289 20.9922 10.0016 19.6666 10C19.4014 10 19.1471 10.1054 18.9595 10.2929C18.772 10.4804 18.6666 10.7348 18.6666 11C18.6666 11.2652 18.772 11.5196 18.9595 11.7071C19.1471 11.8946 19.4014 12 19.6666 12C20.4623 12 21.2253 12.3161 21.7879 12.8787C22.3506 13.4413 22.6666 14.2044 22.6666 15V19C22.6666 20.3261 22.1398 21.5979 21.2022 22.5355C20.2645 23.4732 18.9927 24 17.6666 24C16.3405 24 15.0688 23.4732 14.1311 22.5355C13.1934 21.5979 12.6666 20.3261 12.6666 19V15C12.6666 14.2044 12.9827 13.4413 13.5453 12.8787C14.1079 12.3161 14.871 12 15.6666 12C15.9318 12 16.1862 11.8946 16.3737 11.7071C16.5613 11.5196 16.6666 11.2652 16.6666 11C16.6666 10.7348 16.5613 10.4804 16.3737 10.2929C16.1862 10.1054 15.9318 10 15.6666 10C14.341 10.0016 13.0702 10.5289 12.1328 11.4662C11.1955 12.4036 10.6682 13.6744 10.6666 15L10.6666 19C10.6698 20.6815 11.2777 22.3058 12.3793 23.5762C13.4808 24.8467 15.0025 25.6786 16.6666 25.92V26C16.6666 28.1217 17.5095 30.1566 19.0098 31.6569C20.5101 33.1571 22.5449 34 24.6666 34C26.7884 34 28.8232 33.1571 30.3235 31.6569C31.8238 30.1566 32.6666 28.1217 32.6666 26V21.816C33.2495 21.6099 33.7545 21.2288 34.1125 20.7247C34.4705 20.2206 34.6641 19.6183 34.6666 19ZM31.6666 20C31.4688 20 31.2755 19.9414 31.1111 19.8315C30.9466 19.7216 30.8184 19.5654 30.7427 19.3827C30.6671 19.2 30.6473 18.9989 30.6858 18.8049C30.7244 18.6109 30.8197 18.4327 30.9595 18.2929C31.0994 18.153 31.2776 18.0578 31.4715 18.0192C31.6655 17.9806 31.8666 18.0004 32.0493 18.0761C32.232 18.1518 32.3882 18.28 32.4981 18.4444C32.608 18.6089 32.6666 18.8022 32.6666 19C32.6666 19.2652 32.5613 19.5196 32.3737 19.7071C32.1862 19.8946 31.9318 20 31.6666 20Z" fill="#E54545"/>
</g>
</g>
<defs>
<clipPath id="clip0_122_1339">
<rect width="44" height="44" fill="white" transform="translate(0.666626)"/>
</clipPath>
<clipPath id="clip1_122_1339">
<rect width="24" height="24" fill="white" transform="translate(10.6666 10)"/>
</clipPath>
</defs>
</svg>
