<svg width="21" height="21" viewBox="0 0 21 21" fill="none" xmlns="http://www.w3.org/2000/svg">
<path d="M1.76035 9.6965C1.76035 9.6965 10.6059 5.97084 13.6736 4.65894C14.8497 4.13423 18.8378 2.45499 18.8378 2.45499C18.8378 2.45499 20.6785 1.72039 20.5251 3.5045C20.4739 4.23917 20.0649 6.81038 19.6559 9.59156C19.0423 13.5272 18.3776 17.8301 18.3776 17.8301C18.3776 17.8301 18.2754 19.037 17.4062 19.2469C16.537 19.4568 15.1053 18.5123 14.8497 18.3023C14.6451 18.145 11.0149 15.7836 9.68551 14.6291C9.32758 14.3143 8.91857 13.6846 9.7366 12.95C11.5773 11.2183 13.7759 9.06684 15.1053 7.70251C15.7189 7.07278 16.3324 5.6035 13.7759 7.38761C10.1457 9.95889 6.56658 12.3727 6.56658 12.3727C6.56658 12.3727 5.74847 12.8974 4.21459 12.4252C2.68063 11.953 0.891078 11.3232 0.891078 11.3232C0.891078 11.3232 -0.335973 10.5361 1.76035 9.6965Z" fill="white"/>
</svg>
