<svg width="21" height="20" viewBox="0 0 21 20" fill="none" xmlns="http://www.w3.org/2000/svg">
<path d="M1.22617 9.39132C1.22617 9.39132 10.0717 5.66566 13.1395 4.35377C14.3155 3.82905 18.3036 2.14982 18.3036 2.14982C18.3036 2.14982 20.1443 1.41522 19.9909 3.19932C19.9398 3.934 19.5307 6.50521 19.1217 9.28638C18.5081 13.222 17.8434 17.5249 17.8434 17.5249C17.8434 17.5249 17.7412 18.7318 16.872 18.9417C16.0028 19.1516 14.5711 18.2071 14.3155 17.9972C14.1109 17.8398 10.4807 15.4784 9.15133 14.3239C8.7934 14.0091 8.38439 13.3794 9.20242 12.6448C11.0431 10.9131 13.2417 8.76167 14.5711 7.39733C15.1847 6.7676 15.7982 5.29833 13.2417 7.08243C9.61151 9.65372 6.0324 12.0676 6.0324 12.0676C6.0324 12.0676 5.21429 12.5923 3.68041 12.12C2.14645 11.6478 0.356899 11.018 0.356899 11.018C0.356899 11.018 -0.870153 10.2309 1.22617 9.39132Z" fill="#0B63E5"/>
</svg>
