<svg width="23" height="28" viewBox="0 0 23 28" fill="none" xmlns="http://www.w3.org/2000/svg">
<path d="M11.097 1L1.821 14.494C1.261 15.306 0.981001 15.712 1.001 16.05C1.00787 16.1952 1.04632 16.3372 1.11368 16.466C1.18104 16.5949 1.27567 16.7075 1.391 16.796C1.661 17 2.151 17 3.139 17H11.097V27L20.373 13.506C20.933 12.694 21.213 12.288 21.193 11.95C21.1861 11.8048 21.1477 11.6628 21.0803 11.534C21.013 11.4051 20.9183 11.2925 20.803 11.204C20.533 11 20.043 11 19.055 11H11.097V1Z" fill="#F9E028" stroke="#F9E028" stroke-width="2" stroke-linecap="round" stroke-linejoin="round"/>
</svg>
