<svg width="61" height="60" viewBox="0 0 61 60" fill="none" xmlns="http://www.w3.org/2000/svg">
<circle cx="30.5" cy="30" r="30" fill="#F1EBFF"/>
<g clip-path="url(#clip0_106_985)">
<path d="M49.375 25.5C49.3784 24.6742 49.1545 23.8634 48.7279 23.1564C48.3012 22.4494 47.6883 21.8734 46.9561 21.4915C46.2239 21.1096 45.4008 20.9365 44.5768 20.9913C43.7528 21.046 42.9598 21.3264 42.2846 21.8018C41.6094 22.2771 41.0779 22.9291 40.7485 23.6864C40.4191 24.4436 40.3045 25.2769 40.4171 26.095C40.5297 26.913 40.8652 27.6844 41.3869 28.3244C41.9086 28.9645 42.5964 29.4487 43.375 29.724V36C43.375 38.3869 42.4268 40.6761 40.739 42.364C39.0511 44.0518 36.7619 45 34.375 45C31.9881 45 29.6989 44.0518 28.011 42.364C26.3232 40.6761 25.375 38.3869 25.375 36V35.88C27.8711 35.5178 30.1537 34.27 31.806 32.3643C33.4584 30.4586 34.3702 28.0223 34.375 25.5V19.5C34.3726 17.5116 33.5817 15.6053 32.1757 14.1993C30.7697 12.7933 28.8634 12.0024 26.875 12C26.4772 12 26.0956 12.158 25.8143 12.4393C25.533 12.7206 25.375 13.1022 25.375 13.5C25.375 13.8978 25.533 14.2794 25.8143 14.5607C26.0956 14.842 26.4772 15 26.875 15C28.0685 15 29.2131 15.4741 30.057 16.318C30.9009 17.1619 31.375 18.3065 31.375 19.5V25.5C31.375 27.4891 30.5848 29.3968 29.1783 30.8033C27.7718 32.2098 25.8641 33 23.875 33C21.8859 33 19.9782 32.2098 18.5717 30.8033C17.1652 29.3968 16.375 27.4891 16.375 25.5V19.5C16.375 18.3065 16.8491 17.1619 17.693 16.318C18.5369 15.4741 19.6815 15 20.875 15C21.2728 15 21.6544 14.842 21.9357 14.5607C22.217 14.2794 22.375 13.8978 22.375 13.5C22.375 13.1022 22.217 12.7206 21.9357 12.4393C21.6544 12.158 21.2728 12 20.875 12C18.8866 12.0024 16.9803 12.7933 15.5743 14.1993C14.1683 15.6053 13.3774 17.5116 13.375 19.5L13.375 25.5C13.3798 28.0223 14.2916 30.4586 15.944 32.3643C17.5963 34.27 19.8789 35.5178 22.375 35.88V36C22.375 39.1826 23.6393 42.2348 25.8897 44.4853C28.1402 46.7357 31.1924 48 34.375 48C37.5576 48 40.6098 46.7357 42.8603 44.4853C45.1107 42.2348 46.375 39.1826 46.375 36V29.724C47.2494 29.4149 48.0069 28.8432 48.5439 28.087C49.0809 27.3309 49.3712 26.4274 49.375 25.5ZM44.875 27C44.5783 27 44.2883 26.912 44.0416 26.7472C43.795 26.5824 43.6027 26.3481 43.4892 26.074C43.3756 25.7999 43.3459 25.4983 43.4038 25.2074C43.4617 24.9164 43.6046 24.6491 43.8143 24.4393C44.0241 24.2296 44.2914 24.0867 44.5824 24.0288C44.8733 23.9709 45.1749 24.0006 45.449 24.1142C45.7231 24.2277 45.9574 24.42 46.1222 24.6666C46.287 24.9133 46.375 25.2033 46.375 25.5C46.375 25.8978 46.217 26.2794 45.9357 26.5607C45.6544 26.842 45.2728 27 44.875 27Z" fill="#7534FF"/>
</g>
<defs>
<clipPath id="clip0_106_985">
<rect width="36" height="36" fill="white" transform="translate(13.375 12)"/>
</clipPath>
</defs>
</svg>
