<svg width="37" height="36" viewBox="0 0 37 36" fill="none" xmlns="http://www.w3.org/2000/svg">
<circle cx="18" cy="18" r="18" fill="#F1EBFF"/>
<path d="M28 15.5C28.0019 15.0412 27.8775 14.5908 27.6405 14.198C27.4034 13.8052 27.0629 13.4852 26.6561 13.273C26.2494 13.0609 25.7921 12.9647 25.3343 12.9951C24.8766 13.0256 24.436 13.1813 24.0609 13.4454C23.6857 13.7095 23.3905 14.0717 23.2075 14.4924C23.0245 14.9131 22.9608 15.3761 23.0234 15.8305C23.0859 16.285 23.2723 16.7135 23.5622 17.0691C23.852 17.4247 24.2341 17.6937 24.6666 17.8467V21.3333C24.6666 22.6594 24.1399 23.9312 23.2022 24.8689C22.2645 25.8065 20.9927 26.3333 19.6667 26.3333C18.3406 26.3333 17.0688 25.8065 16.1311 24.8689C15.1934 23.9312 14.6667 22.6594 14.6667 21.3333V21.2667C16.0534 21.0655 17.3215 20.3722 18.2395 19.3135C19.1574 18.2548 19.664 16.9012 19.6667 15.5V12.1667C19.6653 11.062 19.2259 10.003 18.4448 9.22185C17.6637 8.44073 16.6047 8.00132 15.5 8C15.279 8 15.067 8.0878 14.9107 8.24408C14.7545 8.40036 14.6667 8.61232 14.6667 8.83333C14.6667 9.05435 14.7545 9.26631 14.9107 9.42259C15.067 9.57887 15.279 9.66667 15.5 9.66667C16.163 9.66667 16.7989 9.93006 17.2678 10.3989C17.7366 10.8677 18 11.5036 18 12.1667V15.5C18 16.6051 17.561 17.6649 16.7796 18.4463C15.9982 19.2277 14.9384 19.6667 13.8333 19.6667C12.7283 19.6667 11.6685 19.2277 10.8871 18.4463C10.1057 17.6649 9.66666 16.6051 9.66666 15.5V12.1667C9.66666 11.5036 9.93006 10.8677 10.3989 10.3989C10.8677 9.93006 11.5036 9.66667 12.1667 9.66667C12.3877 9.66667 12.5996 9.57887 12.7559 9.42259C12.9122 9.26631 13 9.05435 13 8.83333C13 8.61232 12.9122 8.40036 12.7559 8.24408C12.5996 8.0878 12.3877 8 12.1667 8C11.062 8.00132 10.003 8.44073 9.22185 9.22185C8.44073 10.003 8.00132 11.062 8 12.1667L8 15.5C8.00268 16.9012 8.50924 18.2548 9.4272 19.3135C10.3452 20.3722 11.6133 21.0655 13 21.2667V21.3333C13 23.1014 13.7024 24.7971 14.9526 26.0474C16.2029 27.2976 17.8985 28 19.6667 28C21.4348 28 23.1305 27.2976 24.3807 26.0474C25.6309 24.7971 26.3333 23.1014 26.3333 21.3333V17.8467C26.8191 17.6749 27.2399 17.3573 27.5382 16.9372C27.8366 16.5172 27.9978 16.0152 28 15.5ZM25.5 16.3333C25.3352 16.3333 25.174 16.2845 25.037 16.1929C24.9 16.1013 24.7932 15.9712 24.7301 15.8189C24.667 15.6666 24.6505 15.4991 24.6827 15.3374C24.7148 15.1758 24.7942 15.0273 24.9107 14.9107C25.0273 14.7942 25.1758 14.7148 25.3374 14.6827C25.4991 14.6505 25.6666 14.667 25.8189 14.7301C25.9712 14.7932 26.1013 14.9 26.1929 15.037C26.2844 15.1741 26.3333 15.3352 26.3333 15.5C26.3333 15.721 26.2455 15.933 26.0892 16.0893C25.933 16.2455 25.721 16.3333 25.5 16.3333Z" fill="#7534FF"/>
</svg>
