<svg width="61" height="60" viewBox="0 0 61 60" fill="none" xmlns="http://www.w3.org/2000/svg">
<circle cx="30.8333" cy="30" r="30" fill="#FCECEC"/>
<g clip-path="url(#clip0_106_990)">
<path d="M27.2808 48H19.8333C18.242 48 16.7159 47.3679 15.5907 46.2426C14.4655 45.1174 13.8333 43.5913 13.8333 42V34.5C13.8333 32.9087 14.4655 31.3826 15.5907 30.2574C16.7159 29.1321 18.242 28.5 19.8333 28.5H33.1188C33.9306 28.5004 34.7286 28.7103 35.4355 29.1095C36.1423 29.5087 36.7342 30.0835 37.1538 30.7785L41.9793 25.476C42.3785 25.0371 42.8602 24.6811 43.397 24.4285C43.9337 24.1758 44.515 24.0315 45.1076 24.0036C45.7002 23.9757 46.2925 24.065 46.8507 24.2661C47.4088 24.4673 47.9218 24.7765 48.3603 25.176C49.2354 25.9799 49.7598 27.0952 49.8207 28.2819C49.8815 29.4686 49.474 30.6318 48.6858 31.521L38.4858 42.9765C37.0775 44.556 35.3512 45.8201 33.4202 46.6858C31.4892 47.5515 29.397 47.9994 27.2808 48ZM19.8333 31.5C19.0377 31.5 18.2746 31.8161 17.712 32.3787C17.1494 32.9413 16.8333 33.7044 16.8333 34.5V42C16.8333 42.7956 17.1494 43.5587 17.712 44.1213C18.2746 44.6839 19.0377 45 19.8333 45H27.2808C28.9727 44.9993 30.6453 44.6411 32.1891 43.9488C33.7329 43.2566 35.1129 42.2459 36.2388 40.983L46.4463 29.526C46.7113 29.2275 46.8485 28.8368 46.8283 28.4382C46.8081 28.0395 46.6322 27.6647 46.3383 27.3945C46.0395 27.1259 45.6478 26.9844 45.2463 27C45.0473 27.0084 44.8519 27.0564 44.6717 27.1411C44.4914 27.2259 44.3298 27.3456 44.1963 27.4935L37.5573 34.8C37.2658 35.6067 36.7608 36.319 36.0962 36.8611C35.4315 37.4032 34.6321 37.7547 33.7833 37.878L26.0418 38.985C25.648 39.0415 25.2478 38.9392 24.9294 38.7007C24.6109 38.4621 24.4003 38.1068 24.3438 37.713C24.2873 37.3192 24.3896 36.919 24.6281 36.6006C24.8667 36.2821 25.222 36.0715 25.6158 36.015L33.3588 34.9095C33.7886 34.8494 34.1796 34.6284 34.4528 34.2912C34.7259 33.954 34.8609 33.5256 34.8304 33.0927C34.7999 32.6598 34.6063 32.2546 34.2886 31.959C33.9709 31.6633 33.5528 31.4993 33.1188 31.5H19.8333ZM30.3333 25.611C29.6535 25.6128 28.9934 25.3821 28.4628 24.957C25.8948 22.896 22.8333 19.8 22.8333 16.8C22.7965 15.5675 23.2492 14.3707 24.0925 13.4711C24.9358 12.5716 26.1011 12.0427 27.3333 12C28.4543 12.0044 29.5299 12.4437 30.3333 13.2255C31.1368 12.4437 32.2123 12.0044 33.3333 12C34.5656 12.0427 35.7308 12.5716 36.5741 13.4711C37.4174 14.3707 37.8701 15.5675 37.8333 16.8C37.8333 19.8 34.7718 22.896 32.2023 24.9585C31.6719 25.3827 31.0125 25.6129 30.3333 25.611ZM27.3333 15C26.8973 15.0437 26.4959 15.2568 26.2154 15.5934C25.9349 15.93 25.7977 16.3633 25.8333 16.8C25.8333 18.15 27.5598 20.385 30.3423 22.6185C33.1068 20.385 34.8333 18.15 34.8333 16.8C34.8689 16.3633 34.7317 15.93 34.4512 15.5934C34.1707 15.2568 33.7693 15.0437 33.3333 15C32.8973 15.0437 32.4959 15.2568 32.2154 15.5934C31.9349 15.93 31.7977 16.3633 31.8333 16.8C31.8333 17.1978 31.6753 17.5794 31.394 17.8607C31.1127 18.142 30.7311 18.3 30.3333 18.3C29.9355 18.3 29.554 18.142 29.2727 17.8607C28.9914 17.5794 28.8333 17.1978 28.8333 16.8C28.8689 16.3633 28.7317 15.93 28.4512 15.5934C28.1707 15.2568 27.7693 15.0437 27.3333 15Z" fill="#E54545"/>
</g>
<defs>
<clipPath id="clip0_106_990">
<rect width="36" height="36" fill="white" transform="translate(13.8333 12)"/>
</clipPath>
</defs>
</svg>
