<svg width="37" height="36" viewBox="0 0 37 36" fill="none" xmlns="http://www.w3.org/2000/svg">
<circle cx="18" cy="18" r="18" fill="#FCECEC"/>
<path d="M15.4722 27H11.334C10.4497 27 9.60173 26.6488 8.97649 26.0237C8.35125 25.3986 8 24.5507 8 23.6667V19.5C8 18.6159 8.35125 17.7681 8.97649 17.143C9.60173 16.5179 10.4497 16.1667 11.334 16.1667H18.7162C19.1672 16.1669 19.6106 16.2835 20.0034 16.5053C20.3962 16.727 20.7251 17.0464 20.9582 17.4325L23.6396 14.4867C23.8614 14.2428 24.129 14.0451 24.4273 13.9047C24.7256 13.7644 25.0486 13.6842 25.3779 13.6687C25.7071 13.6532 26.0363 13.7028 26.3464 13.8145C26.6565 13.9263 26.9415 14.098 27.1852 14.32C27.6715 14.7666 27.9629 15.3862 27.9967 16.0455C28.0305 16.7048 27.8041 17.351 27.3661 17.845L21.6984 24.2092C20.9158 25.0867 19.9566 25.7889 18.8836 26.2699C17.8106 26.7509 16.6481 26.9997 15.4722 27ZM11.334 17.8333C10.8918 17.8333 10.4678 18.0089 10.1552 18.3215C9.8426 18.634 9.66698 19.058 9.66698 19.5V23.6667C9.66698 24.1087 9.8426 24.5326 10.1552 24.8452C10.4678 25.1577 10.8918 25.3333 11.334 25.3333H15.4722C16.4123 25.333 17.3418 25.1339 18.1996 24.7494C19.0574 24.3648 19.8242 23.8033 20.4498 23.1017L26.1217 16.7367C26.269 16.5708 26.3452 16.3538 26.334 16.1323C26.3227 15.9108 26.225 15.7026 26.0617 15.5525C25.8957 15.4033 25.678 15.3246 25.4549 15.3333C25.3443 15.338 25.2358 15.3647 25.1356 15.4117C25.0354 15.4588 24.9456 15.5254 24.8715 15.6075L21.1825 19.6667C21.0205 20.1148 20.7399 20.5106 20.3705 20.8117C20.0012 21.1129 19.557 21.3082 19.0854 21.3767L14.7838 21.9917C14.5649 22.0231 14.3426 21.9662 14.1656 21.8337C13.9887 21.7012 13.8716 21.5038 13.8403 21.285C13.8089 21.0662 13.8657 20.8439 13.9982 20.667C14.1308 20.4901 14.3282 20.3731 14.5471 20.3417L18.8495 19.7275C19.0883 19.6941 19.3056 19.5714 19.4574 19.384C19.6092 19.1966 19.6842 18.9587 19.6672 18.7182C19.6503 18.4777 19.5427 18.2526 19.3662 18.0883C19.1896 17.9241 18.9573 17.8329 18.7162 17.8333H11.334ZM17.1684 14.5617C16.7906 14.5627 16.4238 14.4345 16.129 14.1983C14.7021 13.0533 13.0009 11.3333 13.0009 9.66667C12.9805 8.98197 13.232 8.31704 13.7006 7.8173C14.1692 7.31757 14.8167 7.02371 15.5014 7C16.1243 7.00243 16.7219 7.24651 17.1684 7.68083C17.6148 7.24651 18.2124 7.00243 18.8354 7C19.5201 7.02371 20.1675 7.31757 20.6361 7.8173C21.1047 8.31704 21.3563 8.98197 21.3358 9.66667C21.3358 11.3333 19.6347 13.0533 18.2069 14.1992C17.9122 14.4348 17.5458 14.5627 17.1684 14.5617ZM15.5014 8.66667C15.2591 8.69097 15.0361 8.80935 14.8802 8.99635C14.7244 9.18336 14.6481 9.42405 14.6679 9.66667C14.6679 10.4167 15.6273 11.6583 17.1734 12.8992C18.7095 11.6583 19.6688 10.4167 19.6688 9.66667C19.6886 9.42405 19.6124 9.18336 19.4565 8.99635C19.3006 8.80935 19.0776 8.69097 18.8354 8.66667C18.5931 8.69097 18.3701 8.80935 18.2142 8.99635C18.0583 9.18336 17.9821 9.42405 18.0019 9.66667C18.0019 9.88768 17.914 10.0996 17.7577 10.2559C17.6014 10.4122 17.3894 10.5 17.1684 10.5C16.9473 10.5 16.7353 10.4122 16.579 10.2559C16.4227 10.0996 16.3349 9.88768 16.3349 9.66667C16.3547 9.42405 16.2784 9.18336 16.1226 8.99635C15.9667 8.80935 15.7436 8.69097 15.5014 8.66667Z" fill="#E54545"/>
</svg>
