<svg width="21" height="21" viewBox="0 0 21 21" fill="none" xmlns="http://www.w3.org/2000/svg">
<path d="M0.5 20.3052L1.93367 14.9744C0.777452 12.8978 0.410108 10.4746 0.899052 8.14941C1.388 5.82424 2.70043 3.75308 4.59552 2.31599C6.49061 0.878909 8.84124 0.172297 11.2161 0.32582C13.5909 0.479344 15.8306 1.48271 17.5242 3.15179C19.2178 4.82087 20.2518 7.04372 20.4363 9.41243C20.6208 11.7811 19.9434 14.1368 18.5286 16.0472C17.1138 17.9576 15.0564 19.2946 12.7339 19.8127C10.4114 20.3309 7.97958 19.9956 5.88475 18.8682L0.5 20.3052ZM6.14439 16.8734L6.47741 17.0707C7.99474 17.9685 9.76695 18.3401 11.5179 18.1274C13.2688 17.9148 14.9001 17.1298 16.1575 15.8949C17.415 14.66 18.2279 13.0446 18.4697 11.3003C18.7114 9.55598 18.3684 7.78082 17.4941 6.25145C16.6199 4.72208 15.2634 3.52439 13.6361 2.84504C12.0088 2.16569 10.2021 2.04284 8.49756 2.49562C6.79302 2.94841 5.28639 3.95139 4.21245 5.34829C3.13851 6.74518 2.55758 8.45751 2.5602 10.2184C2.55877 11.6785 2.96325 13.1104 3.72859 14.3546L3.93743 14.6983L3.13593 17.6736L6.14439 16.8734Z" fill="white"/>
<path fill-rule="evenodd" clip-rule="evenodd" d="M14.227 11.5872C14.0317 11.43 13.8032 11.3194 13.5586 11.2637C13.3141 11.2081 13.0601 11.2089 12.8159 11.266C12.449 11.4182 12.2119 11.993 11.9749 12.2804C11.9249 12.3492 11.8514 12.3976 11.7683 12.4162C11.6851 12.4349 11.598 12.4227 11.5233 12.3818C10.1801 11.8566 9.05427 10.8934 8.32859 9.64878C8.26669 9.57111 8.2374 9.4725 8.24687 9.3737C8.25635 9.2749 8.30385 9.18362 8.37939 9.11909C8.64379 8.85777 8.83792 8.53411 8.94383 8.17803C8.96734 7.78528 8.87721 7.39406 8.68418 7.05102C8.53496 6.5701 8.25096 6.14188 7.86575 5.81695C7.66707 5.72774 7.44677 5.69782 7.23144 5.73082C7.01611 5.76382 6.81494 5.85831 6.6522 6.0029C6.36968 6.24625 6.14544 6.54976 5.99598 6.89109C5.84652 7.23242 5.77566 7.60288 5.78861 7.97517C5.78948 8.18424 5.81602 8.39241 5.86763 8.59503C5.9987 9.08184 6.20026 9.54695 6.46594 9.97562C6.65762 10.304 6.86676 10.6219 7.09247 10.9279C7.82598 11.9332 8.74802 12.7868 9.80742 13.4412C10.339 13.7737 10.9072 14.0441 11.5007 14.247C12.1173 14.526 12.798 14.6331 13.4706 14.5569C13.8539 14.499 14.217 14.3479 14.528 14.117C14.839 13.8861 15.0884 13.5824 15.2543 13.2327C15.3517 13.0214 15.3813 12.7852 15.3389 12.5565C15.2373 12.0888 14.6108 11.8126 14.227 11.5872Z" fill="white"/>
</svg>
