<svg width="21" height="20" viewBox="0 0 21 20" fill="none" xmlns="http://www.w3.org/2000/svg">
<path d="M0.966064 20L2.39974 14.6692C1.24352 12.5926 0.876173 10.1694 1.36512 7.84424C1.85406 5.51906 3.16649 3.4479 5.06158 2.01082C6.95667 0.573734 9.3073 -0.132879 11.6821 0.0206447C14.0569 0.174168 16.2967 1.17753 17.9903 2.84661C19.6839 4.5157 20.7178 6.73854 20.9023 9.10725C21.0868 11.476 20.4095 13.8316 18.9947 15.742C17.5799 17.6524 15.5224 18.9894 13.1999 19.5076C10.8774 20.0258 8.44564 19.6904 6.35081 18.5631L0.966064 20ZM6.61045 16.5683L6.94347 16.7655C8.4608 17.6633 10.233 18.0349 11.9839 17.8222C13.7349 17.6096 15.3662 16.8246 16.6236 15.5898C17.881 14.3549 18.694 12.7394 18.9357 10.9951C19.1775 9.2508 18.8345 7.47565 17.9602 5.94627C17.0859 4.4169 15.7294 3.21922 14.1021 2.53987C12.4748 1.86052 10.6682 1.73766 8.96362 2.19045C7.25909 2.64323 5.75246 3.64622 4.67852 5.04311C3.60457 6.44 3.02365 8.15233 3.02627 9.91325C3.02484 11.3733 3.42931 12.8052 4.19465 14.0494L4.4035 14.3931L3.60199 17.3684L6.61045 16.5683Z" fill="#0B63E5"/>
<path fill-rule="evenodd" clip-rule="evenodd" d="M14.693 11.2821C14.4978 11.1249 14.2692 11.0142 14.0247 10.9586C13.7802 10.9029 13.5261 10.9037 13.2819 10.9609C12.9151 11.113 12.678 11.6878 12.4409 11.9752C12.3909 12.0441 12.3175 12.0924 12.2343 12.1111C12.1512 12.1297 12.0641 12.1175 11.9894 12.0766C10.6462 11.5514 9.52033 10.5883 8.79465 9.34361C8.73276 9.26594 8.70346 9.16732 8.71294 9.06852C8.72241 8.96972 8.76992 8.87845 8.84545 8.81391C9.10986 8.55259 9.30399 8.22893 9.40989 7.87286C9.43341 7.4801 9.34328 7.08888 9.15025 6.74585C9.00102 6.26493 8.71702 5.8367 8.33181 5.51177C8.13313 5.42256 7.91284 5.39265 7.6975 5.42564C7.48217 5.45864 7.28101 5.55313 7.11827 5.69773C6.83575 5.94107 6.6115 6.24459 6.46205 6.58592C6.31259 6.92725 6.24173 7.2977 6.25468 7.67C6.25555 7.87906 6.28209 8.08723 6.3337 8.28985C6.46477 8.77667 6.66633 9.24177 6.932 9.67044C7.12369 9.99881 7.33283 10.3167 7.55853 10.6228C8.29205 11.628 9.21409 12.4816 10.2735 13.136C10.8051 13.4686 11.3733 13.7389 11.9668 13.9418C12.5833 14.2208 13.2641 14.3279 13.9367 14.2517C14.3199 14.1938 14.683 14.0428 14.994 13.8119C15.3051 13.5809 15.5545 13.2772 15.7203 12.9275C15.8178 12.7162 15.8473 12.48 15.805 12.2513C15.7034 11.7836 15.0769 11.5075 14.693 11.2821Z" fill="#0B63E5"/>
</svg>
